<svg width="40" height="36" viewBox="0 0 40 36" fill="none" xmlns="http://www.w3.org/2000/svg">
<path d="M0 17.6776C0 18.3777 0.323799 18.9903 0.885051 19.7123L12.6713 34.4801C13.1031 35.0051 13.7507 35.3333 14.5494 35.3333C16.0173 35.3333 17.0966 34.13 17.0966 32.7517C17.0966 32.1172 16.8591 31.4827 16.3627 30.8483L5.87156 17.6557L16.3627 4.48502C16.8591 3.87243 17.0966 3.21608 17.0966 2.58161C17.0966 1.20328 16.0173 -2.28882e-05 14.5494 -2.28882e-05C13.7507 -2.28882e-05 13.1031 0.328152 12.6713 0.85323L0.885051 15.6429C0.323799 16.343 0 16.9556 0 17.6776ZM40 17.6776C40 16.9556 39.6978 16.343 39.1365 15.6429L27.3502 0.85323C26.8969 0.328152 26.2493 -2.28882e-05 25.4722 -2.28882e-05C23.9827 -2.28882e-05 22.9034 1.20328 22.9034 2.58161C22.9034 3.21608 23.1624 3.87243 23.6589 4.48502L34.15 17.6557L23.6589 30.8483C23.1624 31.4827 22.9034 32.1172 22.9034 32.7517C22.9034 34.13 23.9827 35.3333 25.4722 35.3333C26.2493 35.3333 26.8969 35.0051 27.3502 34.4801L39.115 19.7123C39.6978 18.9903 40 18.3777 40 17.6776Z" fill="#BE185D" style="mix-blend-mode:darken"/>
</svg>
